/* XPM */
static char *eb372b4dfb5e4837f29016ca9efa1ddeEvL1sMSekI2deKIn[] = {
/* columns rows colors chars-per-pixel */
"64 64 167 2 ",
"   c None",
".  c black",
"X  c #010000",
"o  c #020200",
"O  c #050101",
"+  c #170707",
"@  c #1A0705",
"#  c #180707",
"$  c #1C0505",
"%  c #210505",
"&  c #2A0707",
"*  c #2F0707",
"=  c #230907",
"-  c #2C0A0A",
";  c #3B0909",
":  c #371111",
">  c #2B2800",
",  c #302B00",
"<  c #490B0B",
"1  c #4B0C0C",
"2  c #5B0E0E",
"3  c #5F0F0F",
"4  c #591D1D",
"5  c #6F1A18",
"6  c #6F1B1A",
"7  c #7E1313",
"8  c #7B1615",
"9  c #7F1414",
"0  c #721C1A",
"q  c #751D1B",
"w  c #741E1C",
"e  c #433E00",
"r  c #53310F",
"t  c #592319",
"y  c #712424",
"u  c #742525",
"i  c #7B2525",
"p  c #7F2929",
"a  c #7F2A2A",
"s  c #524F00",
"d  c #565000",
"f  c #6C6C00",
"g  c #707000",
"h  c #777700",
"j  c #801716",
"k  c #891616",
"l  c #A21F1E",
"z  c #AE1D1C",
"x  c #AD1E1E",
"c  c #B71C1C",
"v  c #B81D1C",
"b  c #B81D1D",
"n  c #B91D1D",
"m  c #BA1E1D",
"M  c #BA1E1E",
"N  c #BB1E1E",
"B  c #BB1F1E",
"V  c #BC1F1E",
"C  c #BD1F1F",
"Z  c #85211F",
"A  c #8E211F",
"S  c #9B201E",
"D  c #BD201F",
"F  c #982623",
"G  c #9F2825",
"H  c #AE2422",
"J  c #A42926",
"K  c #B52524",
"L  c #BD2020",
"P  c #BF2120",
"I  c #B52F2C",
"U  c #BF2E2B",
"Y  c #BA2F2C",
"T  c #A2302E",
"R  c #A43535",
"E  c #AB3636",
"W  c #AE3635",
"Q  c #B13737",
"!  c #BE3C3C",
"~  c #C12221",
"^  c #C32322",
"/  c #C32422",
"(  c #C32423",
")  c #C42423",
"_  c #C42523",
"`  c #C52523",
"'  c #C52524",
"]  c #C62524",
"[  c #C62624",
"{  c #C72625",
"}  c #C82625",
"|  c #C82725",
" . c #C92826",
".. c #CB2927",
"X. c #CC2927",
"o. c #CC2A28",
"O. c #CD2A28",
"+. c #CE2A28",
"@. c #CE2B29",
"#. c #CB2C2A",
"$. c #D02C29",
"%. c #D02C2A",
"&. c #D12C2A",
"*. c #D22C2A",
"=. c #D22D2A",
"-. c #D32D2B",
";. c #D32E2B",
":. c #D42E2C",
">. c #D62F2D",
",. c #CD332F",
"<. c #D7302D",
"1. c #D8312E",
"2. c #C83432",
"3. c #C93532",
"4. c #CF3A38",
"5. c #DC3330",
"6. c #DA3633",
"7. c #DE3531",
"8. c #DF3531",
"9. c #DF3532",
"0. c #DC3834",
"q. c #DC3836",
"w. c #D43D3B",
"e. c #E03632",
"r. c #E13633",
"t. c #E13733",
"y. c #E23734",
"u. c #E33734",
"i. c #E33834",
"p. c #E33935",
"a. c #E43834",
"s. c #E43935",
"d. c #E53935",
"f. c #E63A36",
"g. c #E83C39",
"h. c #EC3F3C",
"j. c #877C00",
"k. c #EE413F",
"l. c #E74442",
"z. c #E54A4A",
"x. c #E64A4A",
"c. c #EA4C4C",
"v. c #ED4C4C",
"b. c #F04441",
"n. c #F14442",
"m. c #F54847",
"M. c #F74A49",
"N. c #FB4E4D",
"B. c #FE5151",
"V. c #FF5252",
"C. c #9D8200",
"Z. c #9B9700",
"A. c #A69E00",
"S. c #AC9E00",
"D. c #B9AA00",
"F. c #BDAD00",
"G. c #C7B600",
"H. c #D5C400",
"J. c #E7DA00",
"K. c #F0E400",
"L. c #F7E500",
"P. c #F8E300",
"I. c #FDE800",
"U. c #FFEA00",
"Y. c #FFF500",
"T. c #FEF700",
"R. c #FDFD00",
/* pixels */
"                                                                                                                                ",
"                                                                                                                                ",
"                                                                                                                                ",
"                                                                                                                                ",
"                                                                                                                                ",
"                                                                                                                                ",
"                                                                                                                                ",
"                                                                                                                                ",
"                                                                                                                                ",
"                                                                                                                                ",
"                                                                                                                                ",
"                                                                                                                                ",
"                                                                                                                                ",
"                                                                                                                                ",
"                                                            . . . . . . . . . .                                                 ",
"                      . . . .                             . : T F F F F F F F j O .                                             ",
"                    . C.H.F.d . .                       . Q w.b.d.d.d.d.d.d.d.<.H 1 .                                           ",
"                      . R.T.U.U.> . .                 . z.n.d.Z . . . . . . . . 6.8.9 .                                         ",
"                        . s J.L.U.U.> . . . .       + ! N.Y . .                 . U S $                                         ",
"                          . f Z.K.U.P.G.S.s u .   . p w.d.-                       = K 7 .                                       ",
"                            . . g T.U.U.D.r z.q & . 4 2.d.. . . . . . . . . . . . @ A ' 3 .                                     ",
"                                . h A.j.r W q.^ l G I 0.d.G G G G G G G G G G G G J ,.>.8 .                                     ",
"                                  . . t z.q.L n t.d.d.d.d.c c d.c d.c d.c c d.c d.d.d.i.@.x .                                   ",
"                                    . E b.' n d.d.d.d.d.d.c d.d.c d.c d.c d.d.c d.d.d.d.<.D .                                   ",
"                                    . 0 x ) t.d.d.d.d.d.d.c c d.c d.c d.c c d.c d.d.d.d.>.n .                                   ",
"                                      . ; 2.d.d.d.d.d.d.d.c d.d.c d.c d.c d.d.c d.d.d.d.<.D .                                   ",
"                                        . y l.h.d.d.d.d.d.c d.d.c c c d.c c d.c c d.d.d.>.D .                                   ",
"                                          . c.N.d.d.5. .( d.d.d.d.d.d.d.d.d.d.d.d.^ @.d.>.n .                                   ",
"                                          . v.B.d.d.1.c c *.d.d.d.d.d.d.d.d.d.d.D c ' d.>.V .                                   ",
"                                          . v.B.d.d.8.c c c *.u.d.d.d.d.d.d.i.} n n @.d.>.V .                                   ",
"                                          . v.B.d.d.d.d.' c c } i.d.d.d.d.8.) c c ' d.d.>.V .                                   ",
"                                          . v.B.d.d.d.d.d.n c V *.u.d.d.t. .n n  .d.d.d.>.V .                                   ",
"                                          . v.B.d.d.d.d.d.8. .n D } u.u.' n c @.d.d.d.d.<.D .                                   ",
"                                          . v.B.d.d.d.d.d.d.i. .c c $.^ c c o.d.d.d.d.d.<.n .                                   ",
"                                          . v.B.d.d.d.d.d.d.d.t.) c c c n @.i.d.d.d.d.d.<.D .                                   ",
"                                          . v.B.d.d.d.d.d.d.d.d.u.^ c c ) d.d.d.d.d.d.d.>.n .                                   ",
"                                          . v.B.d.d.d.d.d.d.d.t.) v n n D *.t.d.d.d.d.d.>.V .                                   ",
"                                          . v.B.d.d.d.d.d.d.t.' n v *.} v D X.t.d.d.d.d.>.V .                                   ",
"                                          . v.B.d.d.d.d.d.i.) n c @.t.a.X.n v @.d.d.d.d.>.V O                                   ",
"                                          . v.B.d.d.d.d.d.} c n *.t.d.d.t.) c V *.d.d.d.<.n .                                   ",
"                                          . v.B.d.d.d.d.D v n  .i.d.d.d.d.i. .c c D d.d.>.n .                                   ",
"                                          . v.B.d.d.i.( c n ' d.d.d.d.d.d.d.d.( c D *.d.>.V .                                   ",
"                                          . v.B.d.d.1.P c @.d.d.d.d.d.d.d.d.d.8.' n ' d.>.V .                                   ",
"                                          . v.B.d.d.q.@.X.d.d.d.d.d.d.d.d.d.d.d.d. .<.d.<.V .                                   ",
"                                          . R B.g.p.g.i.d.d.d.d.d.d.d.d.d.d.d.d.d.d.d.d.*.k .                                   ",
"                                            # B.M.p.i.f.d.d.d.d.d.d.d.d.d.d.d.d.d.d.d.*.D -                                     ",
"                                            . B.V.M.d.d.d.d.d.d.d.d.d.d.d.d.d.d.d.d.<.c c %                                     ",
"                                              . a Z i w 0 0 0 0 0 0 0 0 0 0 0 0 0 5 2 2 < .                                     ",
"                                                . . . . . . . . . . . . . . . . . . . . .                                       ",
"                                                                                                                                ",
"                                                                                                                                ",
"                                                                                                                                ",
"                                                                                                                                ",
"                                                                                                                                ",
"                                                                                                                                ",
"                                                                                                                                ",
"                                                                                                                                ",
"                                                                                                                                ",
"                                                                                                                                ",
"                                                                                                                                ",
"                                                                                                                                ",
"                                                                                                                                ",
"                                                                                                                                ",
"                                                                                                                                "
};
