/* XPM */
static char *fd4b3ac7c0fc4930df62ab922d733531bEfgLDGeh9QjFswp[] = {
/* columns rows colors chars-per-pixel */
"64 64 156 2 ",
"   c None",
".  c gray44",
"X  c #BC7DBE",
"o  c #D32DD9",
"O  c #CF39D5",
"+  c #CF3AD4",
"@  c #D231D7",
"#  c #D137D6",
"$  c #D039D5",
"%  c #D330D8",
"&  c #D430DA",
"*  c #D432DA",
"=  c #D434DA",
"-  c #D534DB",
";  c #D535DB",
":  c #D636DB",
">  c #D637DB",
",  c #D33BD8",
"<  c #D639DB",
"1  c #D63ADB",
"2  c #D53DDA",
"3  c #D639DC",
"4  c #D63ADC",
"5  c #D73BDC",
"6  c #D73CDC",
"7  c #D73DDC",
"8  c #D73EDD",
"9  c #D83EDD",
"0  c #D83FDD",
"q  c #BE77C0",
"w  c #BE76C1",
"e  c #BD78C0",
"r  c #C94FCD",
"t  c #C755CB",
"y  c #C853CC",
"u  c #CB51CF",
"i  c #C65BCA",
"p  c #C45FC8",
"a  c #CA5FCE",
"s  c #CC43D1",
"d  c #CD40D2",
"f  c #CB48D0",
"g  c #CD4BD1",
"h  c #CE48D3",
"j  c #CC4DD0",
"k  c #CC4ED1",
"l  c #D143D6",
"z  c #D840DD",
"x  c #D841DD",
"c  c #D842DD",
"v  c #D942DD",
"b  c #D943DE",
"n  c #D844DD",
"m  c #D944DE",
"M  c #D946DE",
"N  c #DA47DE",
"B  c #D549DA",
"V  c #DA48DF",
"C  c #DA49DF",
"Z  c #DB4BDF",
"A  c #DA54DE",
"S  c #C367C7",
"D  c #C466C7",
"F  c #C06EC3",
"G  c #C06FC3",
"H  c #C268C5",
"J  c #C16AC5",
"K  c #CB6ACE",
"L  c #C571C8",
"P  c #DB61DF",
"I  c #D773DA",
"U  c #DA79DD",
"Y  c #DB4DE0",
"T  c #DB4EE0",
"R  c #DC51E1",
"E  c #DD53E1",
"W  c #DD54E1",
"Q  c #DD55E1",
"!  c #DD56E2",
"~  c #DE57E2",
"^  c #DE5AE2",
"/  c #DE5BE3",
"(  c #DF5BE3",
")  c #DF5FE4",
"_  c #DF6AE3",
"`  c #E060E4",
"'  c #E061E4",
"]  c #E062E4",
"[  c #E164E5",
"{  c #E165E5",
"}  c #E167E5",
"|  c #E267E6",
" . c #E269E6",
".. c #E26AE6",
"X. c #E26BE6",
"o. c #E36CE7",
"O. c #E36DE7",
"+. c #E36FE7",
"@. c #E471E8",
"#. c #E473E8",
"$. c #E575E9",
"%. c #E576E9",
"&. c #E577EA",
"*. c #E678EA",
"=. c #E679EA",
"-. c #E67AEA",
";. c #B987BB",
":. c #BA83BC",
">. c #B78FB8",
",. c #B988BB",
"<. c #B88CB9",
"1. c #BC89BE",
"2. c #B693B7",
"3. c #B597B6",
"4. c #B39EB3",
"5. c #B39BB4",
"6. c #B39CB4",
"7. c #B59CB6",
"8. c #BA9DBB",
"9. c gray68",
"0. c #AEAEAE",
"q. c #AFAFAF",
"w. c #AFA9B0",
"e. c #B1A3B2",
"r. c #B0A6B0",
"t. c #B6A2B7",
"y. c #B9A7BA",
"u. c #C383C5",
"i. c #CA85CD",
"p. c #D38CD6",
"a. c #CE9AD0",
"s. c #D397D6",
"d. c #C2A2C3",
"f. c #C2A1C4",
"g. c #E880EC",
"h. c #E882EC",
"j. c #E985ED",
"k. c #E98AED",
"l. c #EA8CEE",
"z. c #EB8EEF",
"x. c #EC93F0",
"c. c #ED95F0",
"v. c #ED98F1",
"b. c #EF9EF2",
"n. c #F0A2F3",
"m. c #F0A5F3",
"M. c #F1A7F4",
"N. c #F2ADF5",
"B. c #F2AEF5",
"V. c #F3B3F6",
"C. c #F5B7F7",
"Z. c #F5BAF8",
"A. c #F7C0F9",
"S. c #F7C2F9",
"D. c #F7C3F9",
"F. c #F8C6FA",
/* pixels */
"                                                                                                                                ",
"                                                                                                                                ",
"                                                                                                                                ",
"                                                                                                                                ",
"                                                                                                                                ",
"                                                                                                                                ",
"                            0.0.0.0.0.0.0.0.0.0.0.. s.g. .R 2 & ; M ( @.l.d.. 0.0.0.0.0.0.0.0.0.0.0.                            ",
"                          0.0.0.0.0.0.0.0.0.0.0.0.. d.p. .R 0 o ; z ^ U a.y.. 0.0.0.0.0.0.0.0.0.0.0.0.                          ",
"                        0.0.0.0.0.0.0.0.0.0.0.0.0.0.. 8.I A 0 & ; M _ i.0.. 0.0.0.0.0.0.0.0.0.0.0.0.0.0.                        ",
"                      0.0.0.0.0.0.0.0.0.0.0.0.0.0.0.0.. 8.K 5 o ; B u.7.. 0.0.0.0.0.0.0.0.0.0.0.0.0.0.0.0.                      ",
"                    0.0.0.0.0.0.0.0.0.0.0.0.0.0.0.0.0.0.. 1.a # h L 5.. 0.0.0.0.0.0.0.0.0.0.0.0.0.0.0.0.0.0.                    ",
"                  0.0.0.0.0.0.0.0.0.0.0.0.0.0.0.0.0.0.0.0.. 3.s S 3.. 0.0.0.0.0.0.0.0.0.0.0.0.0.0.0.0.0.0.0.0.                  ",
"                0.0.0.0.0.0.0.0.0.0.0.0.0.0.0.0.0.0.0.0.0.. 3.s S 3.. 0.0.0.0.0.0.0.0.0.0.0.0.0.0.0.0.0.0.0.0.0.                ",
"              0.0.0.0.0.0.0.0.0.0.0.0.0.0.0.0.0.0.0.0.0.0.. 3.s H 3.. 0.0.0.0.0.0.0.0.0.0.0.0.0.0.0.0.0.0.0.0.0.0.              ",
"            0.0.0.0.0.0.0.0.0.0.0.0.0.0.0.0.0.0.0.0.0.0.0.. 3.s H 3.. 0.0.0.0.0.0.0.0.0.0.0.0.0.0.0.0.0.0.0.0.0.0.0.            ",
"            0.0.0.0.0.0.0.0.0.0.0.0.0.0.0.0.0.0.0.0.0.0.0.. 3.s H 3.. 0.0.0.0.0.0.0.0.0.0.0.0.0.0.0.0.0.0.0.0.0.0.0.            ",
"            0.0.0.0.0.0.0.0.0.0.0.0.0.0.0.0.0.0.0.0.0.0.0.. 3.s J 3.. 0.0.0.0.0.0.0.0.0.0.0.0.0.0.0.0.0.0.0.0.0.0.0.            ",
"            0.0.0.0.0.0.0.0.0.0.0.0.0.0.0.0.0.0.0.0.0.0.0.. 3.s S 3.. 0.0.0.0.0.0.0.0.0.0.0.0.0.0.0.0.0.0.0.0.0.0.0.            ",
"            0.0.0.0.0.0.0.0.0.0.0.0.0.0.0.0.0.0.0.0.0.0.0.. 3.s S 3.. 0.0.0.0.0.0.0.0.0.0.0.0.0.0.0.0.0.0.0.0.0.0.0.            ",
"            0.0.0.0.0.0.0.0.0.0.0.0.0.0.0.0.0.0.0.0.0.0.0.. 3.s H 3.. 0.0.0.0.0.0.0.0.0.0.0.0.0.0.0.0.0.0.0.0.0.0.0.            ",
"            0.0.0.0.0.0.0.0.0.0.0.0.0.0.0.0.0.0.0.0.0.0.. . 3.s H 3.. . 0.0.0.0.0.0.0.0.0.0.0.0.0.0.0.0.0.0.0.0.0.0.            ",
"            0.0.0.0.0.0.0.0.0.0.0.0.0.0.0.0.0.0.0.0.0.. X q J $ r X X ,.. 0.0.0.0.0.0.0.0.0.0.0.0.0.0.0.0.0.0.0.0.0.            ",
"            0.0.0.0.0.0.0.0.0.0.0.0.0.0.0.0.0.0.0.0.. ;.$ o o o o o o t r.. 0.0.0.0.0.0.0.0.0.0.0.0.0.0.0.0.0.0.0.0.            ",
"            0.0.0.0.0.0.0.0.0.0.0.0.0.0.0.0.0.0.0.. q j 2 4 5 5 < < < l t >.. 0.0.0.0.0.0.0.0.0.0.0.0.0.0.0.0.0.0.0.            ",
"            0.0.0.0.0.0.0.0.0.0.0.0.0.0.0.0.0.0.. :.u : 0 N Y Y Y Z z 4 : S >.. 0.0.0.0.0.0.0.0.0.0.0.0.0.0.0.0.0.0.            ",
"            . . 0.0.0.0.0.0.0.0.0.0.0.0.0.0.0.. :.% < z z W { ] { ] Y 0 6 : t r.. 0.0.0.0.0.0.0.0.0.0.0.0.0.0.0.. .             ",
"            s.d.. 0.0.0.0.0.0.0.0.0.0.0.0.0.. q u < 6 M A )  .&.@.{ ^ T 0 4 l i <.. 0.0.0.0.0.0.0.0.0.0.0.0.0.. d.s.            ",
"            g.p.8.. 0.0.0.0.0.0.0.0.0.0.0.. ;.j : z M R `  .&.l.g.O. .( Y M 6 % D 2.. 0.0.0.0.0.0.0.0.0.0.0.. 8.p.g.            ",
"             ._ I 8.. 0.0.0.0.0.0.0.0.0.. X $ 2 z z W ] { &.l.n.v.h.O.{ ) Y 0 0 , t 4.. 0.0.0.0.0.0.0.0.0.. 8.I _  .            ",
"            R R A K 1.. . . . . . . . . . q o 4 M W )  .&.x.N.C.C.M.j.+.{ ^ T 0 & f 6.. . . . . . . . . . 1.K A R R             ",
"            6 6 6 6 a 3.3.3.3.3.3.3.3.3.3.J o 4 T {  .&.l.N.F.F.D.A.b.h. . .^ z & h 3.3.3.3.3.3.3.3.3.3.3.a 6 6 6 6             ",
"            & & & & # s s s s s s s s s s + o 4 T ] &.l.n.C.F.F.F.A.N.v.h.+.^ z : o s s s s s s s s s s s # & & & &             ",
"            ; ; : : g S H H H H H H H S S r o 4 Y { @.g.v.V.F.F.F.D.M.l.-.O.^ z - + p S S J S H H H H H J h : : : :             ",
"            z M z V G 3.3.3.3.3.3.3.3.3.3.q o 4 Y ] { X.h.M.A.D.A.Z.c.-.{ ] W M - f 3.3.3.3.3.3.3.3.3.3.3.L B z M z             ",
"            ^ ( P u.5.. . . . . . . . . . X o 4 z Y ^  .X.j.b.N.M.c.-.X.{ W V z ; f 5.. . . . . . . . . . 5.u.P ^ /             ",
"            #.U i.t.. 0.0.0.0.0.0.0.0.0.. ,.i l 5 0 R / { +.j.v.z.-.X.` W V 0 < j F e.. 0.0.0.0.0.0.0.0.0.. t.i.U #.            ",
"            l.a.0.. 0.0.0.0.0.0.0.0.0.0.0.. r.t & 6 z V _ ]  .g.-.{ { W z 0 < & q 0.. 0.0.0.0.0.0.0.0.0.0.0.. 0.a.l.            ",
"            d.y.. 0.0.0.0.0.0.0.0.0.0.0.0.0.. 2.S : 6 M Z / { O. .] W V z 4 g X 5.. 0.0.0.0.0.0.0.0.0.0.0.0.0.. y.d.            ",
"            . . 0.0.0.0.0.0.0.0.0.0.0.0.0.0.0.. <.y l 6 z Z ^ ^ ^ ^ V 0 4 g F 9.. 0.0.0.0.0.0.0.0.0.0.0.0.0.0.0.. .             ",
"            0.0.0.0.0.0.0.0.0.0.0.0.0.0.0.0.0.q.. r.p & z z z z z z z < o X r.. 0.0.0.0.0.0.0.0.0.0.0.0.0.0.0.0.0.0.            ",
"            0.0.0.0.0.0.0.0.0.0.0.0.0.0.0.0.0.0.0.. ,.D < : = : ; & ; j X 5.. 0.0.0.0.0.0.0.0.0.0.0.0.0.0.0.0.0.0.0.            ",
"            0.0.0.0.0.0.0.0.0.0.0.0.0.0.0.0.0.0.0.0.. 3.y f s @ $ g f G 0.. 9.9.0.0.0.0.0.0.0.0.0.0.0.0.0.0.0.0.0.0.            ",
"            0.0.0.0.0.0.0.0.0.0.0.0.0.0.0.0.0.0.0.0.0.. 4.5.,.d p 7.6.r.. 0.0.0.0.0.0.0.0.0.0.0.0.0.0.0.0.0.0.0.0.0.            ",
"            0.0.0.0.0.0.0.0.0.0.0.0.0.0.0.0.0.0.0.0.0.0.. . 3.s J 3.. . 0.0.0.0.0.0.0.0.0.0.0.0.0.0.0.0.0.0.0.0.0.0.            ",
"            0.0.0.0.0.0.0.0.0.0.0.0.0.0.0.0.0.0.0.0.0.0.0.. 3.s S 3.. 0.0.0.0.0.0.0.0.0.0.0.0.0.0.0.0.0.0.0.0.0.0.0.            ",
"            0.0.0.0.0.0.0.0.0.0.0.0.0.0.0.0.0.0.0.0.0.0.0.. 3.s S 3.. 0.0.0.0.0.0.0.0.0.0.0.0.0.0.0.0.0.0.0.0.0.0.0.            ",
"            0.0.0.0.0.0.0.0.0.0.0.0.0.0.0.0.0.0.0.0.0.0.0.. 3.s J 3.. 0.0.0.0.0.0.0.0.0.0.0.0.0.0.0.0.0.0.0.0.0.0.0.            ",
"            0.0.0.0.0.0.0.0.0.0.0.0.0.0.0.0.0.0.0.0.0.0.0.. 3.s S 3.. 0.0.0.0.0.0.0.0.0.0.0.0.0.0.0.0.0.0.0.0.0.0.0.            ",
"            0.0.0.0.0.0.0.0.0.0.0.0.0.0.0.0.0.0.0.0.0.0.0.. 3.s J 3.. 0.0.0.0.0.0.0.0.0.0.0.0.0.0.0.0.0.0.0.0.0.0.0.            ",
"            0.0.0.0.0.0.0.0.0.0.0.0.0.0.0.0.0.0.0.0.0.0.0.. 3.s S 3.. 0.0.0.0.0.0.0.0.0.0.0.0.0.0.0.0.0.0.0.0.0.0.0.            ",
"              0.0.0.0.0.0.0.0.0.0.0.0.0.0.0.0.0.0.0.0.0.0.. 3.s S 3.. 0.0.0.0.0.0.0.0.0.0.0.0.0.0.0.0.0.0.0.0.0.0.              ",
"                0.q.0.0.0.0.0.0.0.0.0.0.0.0.0.0.0.0.0.0.0.. 3.s H 3.. 0.0.0.0.0.0.0.0.0.0.0.0.0.0.0.0.0.0.0.0.0.                ",
"                  0.0.0.0.0.0.0.0.0.0.0.0.0.0.0.0.0.0.0.0.. 3.s H 3.. q.0.0.0.0.0.0.0.0.0.0.0.0.0.0.0.0.0.0.0.                  ",
"                    0.0.0.0.0.0.0.0.0.0.0.0.0.0.0.0.0.0.. 1.a $ g G 5.. 0.0.0.0.0.0.0.0.0.0.0.0.0.0.0.0.0.0.                    ",
"                      0.q.0.0.0.0.0.0.0.0.0.0.0.0.0.0.. 8.K 6 & & B u.t.. 0.0.0.0.0.0.0.0.0.0.0.0.0.0.0.0.                      ",
"                        0.0.0.0.0.0.0.0.0.0.0.0.0.0.. 8.I A 6 & ; 0 _ i.0.. 0.0.0.0.0.0.0.0.0.0.0.0.0.0.                        ",
"                          0.0.0.0.0.0.0.0.0.0.0.0.. d.p.} R 0 & ; M ( U a.y.. 0.0.0.0.0.0.0.0.0.0.0.0.                          ",
"                            0.0.0.0.0.0.0.0.0.0.0.. s.g. .R 5 & ; z ( &.l.f.. 0.0.0.0.0.0.0.0.0.0.0.                            ",
"                                                                                                                                ",
"                                                                                                                                ",
"                                                                                                                                ",
"                                                                                                                                ",
"                                                                                                                                ",
"                                                                                                                                "
};
