/* XPM */
static char *_decc04bcfc34b7b8a3f58358aaecdad5oTvY6i7TDugt6EZ[] = {
/* columns rows colors chars-per-pixel */
"64 64 12 1 ",
"  c None",
". c #081012",
"X c #1D231B",
"o c #0D1826",
"O c #14223F",
"+ c #6F0404",
"@ c #1F3E46",
"# c #9F0000",
"$ c #A63300",
"% c #C05100",
"& c #273E82",
"* c #78ACB9",
/* pixels */
"                                                                ",
"                                                                ",
"                                                                ",
"                                                                ",
"                                                                ",
"                                                                ",
"                                                                ",
"                                                                ",
"                                                                ",
"                                                                ",
"                                                                ",
"                                                                ",
"                    #$                                          ",
"                    +#$$                                        ",
"                    +#$$$$                                      ",
"                     +#$$X&                                     ",
"                     +#$$X**&X                                  ",
"                      +#$$X**X%%                                ",
"                      +#$$$XX$$%%%                              ",
"                      +##$$$$$$$%%#$                            ",
"                       +#$$$$$$$%##$$$                          ",
"                    OOO+##$$$$$$%#$$%%%%                        ",
"                    @@O+##$$$$$$##$$$%%%%%                      ",
"                   @@OO@+##$$$$$#$$$$$$%%%%                     ",
"                   @@O@@+##$$$$#######$$$$$X&                   ",
"                   OOo@@o+#########$$$$$$$$X**                  ",
"                   OOoOOoOOo+###$$$$$$%%%%%%#*                  ",
"                   OO.OO..Oo##$$$$$%%%%%%%%%%##                 ",
"                   OO..OO#####$$$%%%%%$OOO$%%%$                 ",
"                    OO.###$$$##$%%%%%$$OO@&$%%$$                ",
"                    OOO#$$$$%$#$%%%%%$OO@**&%%%$                ",
"                      #$$$$%%%#%%%%%$$O@@***&%%$                ",
"                      #$$$$%%%#%%%%%$$O@@&**&%%$                ",
"                      #$$$$%%%#%%%%%$$O@@&&&&%%$                ",
"                      #$$$$%%%#%%%%%$$OOO&&&&%%$                ",
"                    OOO#$$$$%$#$%%%%%$OOO&&&%%%$                ",
"                    @@O###$$$##$%%%%%$$OOO&$%%$$                ",
"                   @@OO@@#####$$$%%%%%$OOO$%%%$                 ",
"                   @@O@@OO@o##$$$$$%%%%%%%%%%##                 ",
"                   OOo@@oO@o+##$$$$$$$%%%%%%#*                  ",
"                   OOoOOo+#########$$$$$$$$X**                  ",
"                   OO.OO+##$$$$#######$$$$$X&                   ",
"                   OO..O+##$$$$$#$$$$$$%%%%                     ",
"                    OO.+##$$$$$$##$$$%%%%%                      ",
"                    OOO+##$$$$$$%#$$%%%%                        ",
"                       +#$$$$$$$%##$$$                          ",
"                      +##$$$$$$$%%#$                            ",
"                      +#$$$XX$$%%%                              ",
"                      +#$$X**X%%                                ",
"                     +#$$X**&X                                  ",
"                     +#$$X&                                     ",
"                    +#$$$$                                      ",
"                    +#$$                                        ",
"                    #$                                          ",
"                                                                ",
"                                                                ",
"                                                                ",
"                                                                ",
"                                                                ",
"                                                                ",
"                                                                ",
"                                                                ",
"                                                                ",
"                                                                "
};
