/* XPM */
static char *_fc50f5d119d4f8bac96eef3a0029aeaG31WwLpIpcG2kAVO[] = {
/* columns rows colors chars-per-pixel */
"64 64 13 1 ",
"  c None",
". c #D430DA",
"X c #D535DB",
"o c #D73CDC",
"O c #D944DE",
"+ c #DC51E1",
"@ c #DF5BE3",
"# c #E269E6",
"$ c #E473E8",
"% c #CE9AD0",
"& c #D397D6",
"* c #E880EC",
"= c #E98AED",
/* pixels */
"                          &*#+o.XO@$=%                          ",
"                          &*#+o.XO@$=%                          ",
"                          &*#+o.XO@$=%                          ",
"                          &*#+o.XO@$=%                          ",
"                          &*#+o.XO@$=%                          ",
"                          &*#+o.XO@$=%                          ",
"                          &*#+o.XO@$=%                          ",
"                          &*#+o.XO@$=%                          ",
"                          &*#+o.XO@$=%                          ",
"                          &*#+o.XO@$=%                          ",
"                          &*#+o.XO@$=%                          ",
"                          &*#+o.XO@$=%                          ",
"                          &*#+o.XO@$=%                          ",
"                          &*#+o.XO@$=%                          ",
"                          &*#+o.XO@$=%                          ",
"                          &*#+o.XO@$=%                          ",
"                          &*#+o.XO@$=%                          ",
"                          &*#+o.XO@$=%                          ",
"                          &*#+o.XO@$=%                          ",
"                          &*#+o.XO@$=%                          ",
"                          &*#+o.XO@$=%                          ",
"                          &*#+o.XO@$=%                          ",
"                          &*#+o.XO@$=%                          ",
"                          &*#+o.XO@$=%                          ",
"                          &*#+o.XO@$=%                          ",
"                          &*#+o.XO@$=%                          ",
"                          &*#+o.XO@$=%                          ",
"                          &*#+o.XO@$=%                          ",
"                          &*#+o.XO@$=%                          ",
"                          &*#+o.XO@$=%                          ",
"                          &*#+o.XO@$=%                          ",
"                          &*#+o.XO@$=%                          ",
"                          &*#+o.XO@$=%                          ",
"                          &*#+o.XO@$=%                          ",
"                          &*#+o.XO@$=%                          ",
"                          &*#+o.XO@$=%                          ",
"                          &*#+o.XO@$=%                          ",
"                          &*#+o.XO@$=%                          ",
"                          &*#+o.XO@$=%                          ",
"                          &*#+o.XO@$=%                          ",
"                          &*#+o.XO@$=%                          ",
"                          &*#+o.XO@$=%                          ",
"                          &*#+o.XO@$=%                          ",
"                          &*#+o.XO@$=%                          ",
"                          &*#+o.XO@$=%                          ",
"                          &*#+o.XO@$=%                          ",
"                          &*#+o.XO@$=%                          ",
"                          &*#+o.XO@$=%                          ",
"                          &*#+o.XO@$=%                          ",
"                          &*#+o.XO@$=%                          ",
"                          &*#+o.XO@$=%                          ",
"                          &*#+o.XO@$=%                          ",
"                          &*#+o.XO@$=%                          ",
"                          &*#+o.XO@$=%                          ",
"                          &*#+o.XO@$=%                          ",
"                          &*#+o.XO@$=%                          ",
"                          &*#+o.XO@$=%                          ",
"                          &*#+o.XO@$=%                          ",
"                          &*#+o.XO@$=%                          ",
"                          &*#+o.XO@$=%                          ",
"                          &*#+o.XO@$=%                          ",
"                          &*#+o.XO@$=%                          ",
"                          &*#+o.XO@$=%                          ",
"                          &*#+o.XO@$=%                          "
};
