/* XPM */
static char *_4fdc6f323e340089a68693d737f5972C5Leg556gaGguKOb[] = {
/* columns rows colors chars-per-pixel */
"32 32 7 1 ",
"  c None",
". c #0C2535",
"X c #3F3B42",
"o c #504F55",
"O c #6F6569",
"+ c #6AACF0",
"@ c #95909E",
/* pixels */
"               @@@              ",
"            @@@@@@@@            ",
"           @@@@@@@@@@           ",
"           @@OOOO@@@@XXXX       ",
"           @OOOOoO@@@@XXXXX     ",
"          @OOOOoOoooooOXXX.XX   ",
"         OOOOOOOooooooOOOOO.XX  ",
"        OX..XOOOOoooooOOOOOOXX  ",
"   XXXXOO.XXXoO@@oooo@@@@@@OOOX ",
"  XXX@@@X.XXX@@@@OooO@@@@@@@OOO ",
"  XX@@@@XXXXX@@@OOOOO@@@@@@@OOOO",
"  X@@@@@XXXoO@@@.XOOOO@@@@@@OOOO",
"  @@@@@@OO@@@OXXX.oOOO@@@@@@oOOO",
" @@@@@@OOO@@@OXXX.oOOoO@@@OooOOO",
" @@@@OXXOOOOOOXXXX+OOOoo@@@OOOO ",
" @@@oXooOXXXXXXOOO+XOOO@@@@O..O ",
" @@OooooX...X..XOOOXO@@@@@@o.OO ",
" @@OoooO...XXXXXOOOOO@@@@@@Oo+O ",
"  OOOooO..XXXXXXOOXOOO@@@@@O++O ",
" OOOOOOOX.XXXXXX+OXOOOOOXXOOOOO ",
"  OOXO@@@XXXXXX++XXOOOOX.XXOOOO ",
" OOOOX@@@OXXXXOOX..XXXX..XXOOO  ",
"  OOOXXXXOO++O.....X..X..oOOOo  ",
"  oOOXX...XXO......X..X..oOOoo  ",
"  +oooX.....O...XX..XX.XXXooo+  ",
"   +oooo....OX.XX.........oo++  ",
"    ++ooo....OOX....X....o+++   ",
"     +++oo.....o....oooo++++    ",
"       ++++ooooo...ooo+++       ",
"         ++++oooo+++++++        ",
"          ++++++++++            ",
"                                "
};
